# xmcd CD database file
#
# Track frame offsets:
#	150
#	14039
#	27731
#	45401
#	57704
#	71174
#	90245
#	101099
#	113469
#	125682
#
# Disc length: 1858 seconds
#
# Revision: 0
# Processed by: cddbd v1.5.1PL0 Copyright (c) Steve Scherf et al.
# Submitted via: CDex 1.51
#
DISCID=8b07400a
DTITLE=Howling Wolf - Big City Blues
DYEAR=1900
DGENRE=Blues
TTITLE0=Riding in The Moonlight
TTITLE1=Woried About My Baby
TTITLE2=Crying At Daylight
TTITLE3=Brown Skin Woman
TTITLE4=Twisting And Turning
TTITLE5=House Rocking Boogie
TTITLE6=Keep 
TTITLE7=what You Got
TTITLE8=Dog Me Arround Morning At Midnight
TTITLE9=Backslide Boogie
EXTD=
EXTT0=
EXTT1=
EXTT2=
EXTT3=
EXTT4=
EXTT5=
EXTT6=
EXTT7=
EXTT8=
EXTT9=
PLAYORDER=
